<svg xmlns="http://www.w3.org/2000/svg" viewBox="0 0 720 334" width="720" height="334" role="img" aria-label="Shell Sort"><style>@keyframes a0{0%,5.7%{opacity:0;transform:translateY(10px)}9.7%,92%{opacity:1;transform:translateY(0)}100%{opacity:0}}.s0{animation:a0 8.7s ease-out infinite}@keyframes a1{0%,20.7%{opacity:0;transform:translateY(10px)}24.7%,92%{opacity:1;transform:translateY(0)}100%{opacity:0}}.s1{animation:a1 8.7s ease-out infinite}@keyframes a2{0%,35.6%{opacity:0;transform:translateY(10px)}39.6%,92%{opacity:1;transform:translateY(0)}100%{opacity:0}}.s2{animation:a2 8.7s ease-out infinite}@keyframes a3{0%,50.6%{opacity:0;transform:translateY(10px)}54.6%,92%{opacity:1;transform:translateY(0)}100%{opacity:0}}.s3{animation:a3 8.7s ease-out infinite}</style><defs><linearGradient id="g7" x1="0" x2="1"><stop offset="0" stop-color="#f97316"/><stop offset="1" stop-color="#db2777"/></linearGradient></defs><rect width="720" height="334" rx="14" fill="#1e1b2e"/><rect x="14" y="0" width="692" height="4" rx="2" fill="url(#g7)"/><text x="24" y="32" font-family="Segoe UI,Arial,sans-serif" font-size="18" fill="#fff" text-anchor="start" font-weight="bold">Shell Sort</text><text x="24" y="52" font-family="Segoe UI,Arial,sans-serif" font-size="12" fill="#b9b4d6" text-anchor="start" font-weight="normal">Insertion sort on elements that are one gap apart; shrink the gap until it is 1.</text><g class="s0"><text x="24" y="101" font-family="Segoe UI,Arial,sans-serif" font-size="13" fill="#fff" text-anchor="start" font-weight="bold">Start</text><rect x="190" y="76" width="52" height="40" rx="7" fill="#f97316"/><text x="216.0" y="101.6" font-family="Segoe UI,Arial,sans-serif" font-size="16" fill="#fff" text-anchor="middle" font-weight="bold">9</text><rect x="248" y="76" width="52" height="40" rx="7" fill="#db2777"/><text x="274.0" y="101.6" font-family="Segoe UI,Arial,sans-serif" font-size="16" fill="#fff" text-anchor="middle" font-weight="bold">8</text><rect x="306" y="76" width="52" height="40" rx="7" fill="#a855f7"/><text x="332.0" y="101.6" font-family="Segoe UI,Arial,sans-serif" font-size="16" fill="#fff" text-anchor="middle" font-weight="bold">3</text><rect x="364" y="76" width="52" height="40" rx="7" fill="#0ea5e9"/><text x="390.0" y="101.6" font-family="Segoe UI,Arial,sans-serif" font-size="16" fill="#fff" text-anchor="middle" font-weight="bold">7</text><rect x="422" y="76" width="52" height="40" rx="7" fill="#f97316"/><text x="448.0" y="101.6" font-family="Segoe UI,Arial,sans-serif" font-size="16" fill="#fff" text-anchor="middle" font-weight="bold">5</text><rect x="480" y="76" width="52" height="40" rx="7" fill="#db2777"/><text x="506.0" y="101.6" font-family="Segoe UI,Arial,sans-serif" font-size="16" fill="#fff" text-anchor="middle" font-weight="bold">6</text><rect x="538" y="76" width="52" height="40" rx="7" fill="#a855f7"/><text x="564.0" y="101.6" font-family="Segoe UI,Arial,sans-serif" font-size="16" fill="#fff" text-anchor="middle" font-weight="bold">4</text><rect x="596" y="76" width="52" height="40" rx="7" fill="#0ea5e9"/><text x="622.0" y="101.6" font-family="Segoe UI,Arial,sans-serif" font-size="16" fill="#fff" text-anchor="middle" font-weight="bold">1</text></g><g class="s1"><text x="24" y="157" font-family="Segoe UI,Arial,sans-serif" font-size="13" fill="#fff" text-anchor="start" font-weight="bold">gap = 4</text><rect x="190" y="132" width="52" height="40" rx="7" fill="#f97316"/><text x="216.0" y="157.6" font-family="Segoe UI,Arial,sans-serif" font-size="16" fill="#fff" text-anchor="middle" font-weight="bold">5</text><rect x="248" y="132" width="52" height="40" rx="7" fill="#db2777"/><text x="274.0" y="157.6" font-family="Segoe UI,Arial,sans-serif" font-size="16" fill="#fff" text-anchor="middle" font-weight="bold">6</text><rect x="306" y="132" width="52" height="40" rx="7" fill="#a855f7"/><text x="332.0" y="157.6" font-family="Segoe UI,Arial,sans-serif" font-size="16" fill="#fff" text-anchor="middle" font-weight="bold">3</text><rect x="364" y="132" width="52" height="40" rx="7" fill="#0ea5e9"/><text x="390.0" y="157.6" font-family="Segoe UI,Arial,sans-serif" font-size="16" fill="#fff" text-anchor="middle" font-weight="bold">1</text><rect x="422" y="132" width="52" height="40" rx="7" fill="#f97316"/><text x="448.0" y="157.6" font-family="Segoe UI,Arial,sans-serif" font-size="16" fill="#fff" text-anchor="middle" font-weight="bold">9</text><rect x="480" y="132" width="52" height="40" rx="7" fill="#db2777"/><text x="506.0" y="157.6" font-family="Segoe UI,Arial,sans-serif" font-size="16" fill="#fff" text-anchor="middle" font-weight="bold">8</text><rect x="538" y="132" width="52" height="40" rx="7" fill="#a855f7"/><text x="564.0" y="157.6" font-family="Segoe UI,Arial,sans-serif" font-size="16" fill="#fff" text-anchor="middle" font-weight="bold">4</text><rect x="596" y="132" width="52" height="40" rx="7" fill="#0ea5e9"/><text x="622.0" y="157.6" font-family="Segoe UI,Arial,sans-serif" font-size="16" fill="#fff" text-anchor="middle" font-weight="bold">7</text></g><g class="s2"><text x="24" y="213" font-family="Segoe UI,Arial,sans-serif" font-size="13" fill="#fff" text-anchor="start" font-weight="bold">gap = 2</text><rect x="190" y="188" width="52" height="40" rx="7" fill="#f97316"/><text x="216.0" y="213.6" font-family="Segoe UI,Arial,sans-serif" font-size="16" fill="#fff" text-anchor="middle" font-weight="bold">3</text><rect x="248" y="188" width="52" height="40" rx="7" fill="#db2777"/><text x="274.0" y="213.6" font-family="Segoe UI,Arial,sans-serif" font-size="16" fill="#fff" text-anchor="middle" font-weight="bold">1</text><rect x="306" y="188" width="52" height="40" rx="7" fill="#f97316"/><text x="332.0" y="213.6" font-family="Segoe UI,Arial,sans-serif" font-size="16" fill="#fff" text-anchor="middle" font-weight="bold">4</text><rect x="364" y="188" width="52" height="40" rx="7" fill="#db2777"/><text x="390.0" y="213.6" font-family="Segoe UI,Arial,sans-serif" font-size="16" fill="#fff" text-anchor="middle" font-weight="bold">6</text><rect x="422" y="188" width="52" height="40" rx="7" fill="#f97316"/><text x="448.0" y="213.6" font-family="Segoe UI,Arial,sans-serif" font-size="16" fill="#fff" text-anchor="middle" font-weight="bold">5</text><rect x="480" y="188" width="52" height="40" rx="7" fill="#db2777"/><text x="506.0" y="213.6" font-family="Segoe UI,Arial,sans-serif" font-size="16" fill="#fff" text-anchor="middle" font-weight="bold">7</text><rect x="538" y="188" width="52" height="40" rx="7" fill="#f97316"/><text x="564.0" y="213.6" font-family="Segoe UI,Arial,sans-serif" font-size="16" fill="#fff" text-anchor="middle" font-weight="bold">9</text><rect x="596" y="188" width="52" height="40" rx="7" fill="#db2777"/><text x="622.0" y="213.6" font-family="Segoe UI,Arial,sans-serif" font-size="16" fill="#fff" text-anchor="middle" font-weight="bold">8</text></g><g class="s3"><text x="24" y="269" font-family="Segoe UI,Arial,sans-serif" font-size="13" fill="#fff" text-anchor="start" font-weight="bold">gap = 1</text><rect x="190" y="244" width="52" height="40" rx="7" fill="#16a34a"/><text x="216.0" y="269.6" font-family="Segoe UI,Arial,sans-serif" font-size="16" fill="#fff" text-anchor="middle" font-weight="bold">1</text><rect x="248" y="244" width="52" height="40" rx="7" fill="#16a34a"/><text x="274.0" y="269.6" font-family="Segoe UI,Arial,sans-serif" font-size="16" fill="#fff" text-anchor="middle" font-weight="bold">3</text><rect x="306" y="244" width="52" height="40" rx="7" fill="#16a34a"/><text x="332.0" y="269.6" font-family="Segoe UI,Arial,sans-serif" font-size="16" fill="#fff" text-anchor="middle" font-weight="bold">4</text><rect x="364" y="244" width="52" height="40" rx="7" fill="#16a34a"/><text x="390.0" y="269.6" font-family="Segoe UI,Arial,sans-serif" font-size="16" fill="#fff" text-anchor="middle" font-weight="bold">5</text><rect x="422" y="244" width="52" height="40" rx="7" fill="#16a34a"/><text x="448.0" y="269.6" font-family="Segoe UI,Arial,sans-serif" font-size="16" fill="#fff" text-anchor="middle" font-weight="bold">6</text><rect x="480" y="244" width="52" height="40" rx="7" fill="#16a34a"/><text x="506.0" y="269.6" font-family="Segoe UI,Arial,sans-serif" font-size="16" fill="#fff" text-anchor="middle" font-weight="bold">7</text><rect x="538" y="244" width="52" height="40" rx="7" fill="#16a34a"/><text x="564.0" y="269.6" font-family="Segoe UI,Arial,sans-serif" font-size="16" fill="#fff" text-anchor="middle" font-weight="bold">8</text><rect x="596" y="244" width="52" height="40" rx="7" fill="#16a34a"/><text x="622.0" y="269.6" font-family="Segoe UI,Arial,sans-serif" font-size="16" fill="#fff" text-anchor="middle" font-weight="bold">9</text></g><rect x="24" y="310" width="11" height="11" rx="3" fill="#f97316"/><text x="41" y="320" font-family="Segoe UI,Arial,sans-serif" font-size="11" fill="#b9b4d6" text-anchor="start" font-weight="normal">same colour = same gap chain</text><rect x="239.4" y="310" width="11" height="11" rx="3" fill="#16a34a"/><text x="256.4" y="320" font-family="Segoe UI,Arial,sans-serif" font-size="11" fill="#b9b4d6" text-anchor="start" font-weight="normal">sorted</text></svg>